<mxfile host="65bd71144e" pages="3">
    <diagram id="HlgkqBEfajMvOwJf2j19" name="架构图">
        <mxGraphModel dx="864" dy="563" grid="1" gridSize="10" guides="1" tooltips="1" connect="1" arrows="1" fold="1" page="1" pageScale="1" pageWidth="827" pageHeight="1169" math="0" shadow="0">
            <root>
                <mxCell id="0"/>
                <mxCell id="1" parent="0"/>
                <mxCell id="TLKmbodHc9-tWzEVnzp6-1" value="应用层" style="rounded=1;whiteSpace=wrap;html=1;align=center;fillColor=#dae8fc;strokeColor=#6c8ebf;arcSize=5;verticalAlign=top;" parent="1" vertex="1">
                    <mxGeometry x="283.25" y="200" width="700" height="130" as="geometry"/>
                </mxCell>
                <mxCell id="TLKmbodHc9-tWzEVnzp6-2" value="数据配置：提供源数据接入和数据集管理的能力" style="rounded=1;whiteSpace=wrap;html=1;fillColor=#f5f5f5;strokeColor=#666666;fontColor=#333333;" parent="1" vertex="1">
                    <mxGeometry x="428.5" y="980" width="410" height="70" as="geometry"/>
                </mxCell>
                <mxCell id="TLKmbodHc9-tWzEVnzp6-3" value="JMOSG：查询引擎" style="rounded=1;whiteSpace=wrap;html=1;verticalAlign=top;arcSize=6;fillColor=#ffe6cc;strokeColor=#d79b00;" parent="1" vertex="1">
                    <mxGeometry x="284.5" y="420" width="700" height="450" as="geometry"/>
                </mxCell>
                <mxCell id="TLKmbodHc9-tWzEVnzp6-4" value="" style="shape=flexArrow;endArrow=classic;html=1;" parent="1" edge="1">
                    <mxGeometry width="50" height="50" relative="1" as="geometry">
                        <mxPoint x="638" y="960" as="sourcePoint"/>
                        <mxPoint x="638" y="890" as="targetPoint"/>
                    </mxGeometry>
                </mxCell>
                <mxCell id="TLKmbodHc9-tWzEVnzp6-5" value="数据图表：提供数据查询和图表展示的能力" style="rounded=1;whiteSpace=wrap;html=1;align=center;fillColor=#fff2cc;strokeColor=#d6b656;arcSize=5;verticalAlign=top;" parent="1" vertex="1">
                    <mxGeometry x="306.75" y="235" width="146.5" height="75" as="geometry"/>
                </mxCell>
                <mxCell id="TLKmbodHc9-tWzEVnzp6-6" value="" style="rounded=1;whiteSpace=wrap;html=1;align=center;arcSize=6;fillColor=#d5e8d4;strokeColor=#82b366;" parent="1" vertex="1">
                    <mxGeometry x="293" y="450" width="681" height="220" as="geometry"/>
                </mxCell>
                <mxCell id="TLKmbodHc9-tWzEVnzp6-7" value="QueryManager：&lt;br&gt;查询管理" style="rounded=1;whiteSpace=wrap;html=1;align=left;fillColor=#dae8fc;strokeColor=#6c8ebf;" parent="1" vertex="1">
                    <mxGeometry x="303.5" y="460" width="660" height="100" as="geometry"/>
                </mxCell>
                <mxCell id="TLKmbodHc9-tWzEVnzp6-8" style="edgeStyle=orthogonalEdgeStyle;rounded=0;orthogonalLoop=1;jettySize=auto;html=1;exitX=0.5;exitY=0;exitDx=0;exitDy=0;entryX=0.5;entryY=1;entryDx=0;entryDy=0;" parent="1" source="TLKmbodHc9-tWzEVnzp6-9" target="TLKmbodHc9-tWzEVnzp6-7" edge="1">
                    <mxGeometry relative="1" as="geometry"/>
                </mxCell>
                <mxCell id="TLKmbodHc9-tWzEVnzp6-9" value="USQL：提供无关数据库的标准化输入与标准化输出，其职责只处理标准化语法解析，和目标数据库 SQL 语法生成的能力" style="rounded=1;whiteSpace=wrap;html=1;fillColor=#fff2cc;strokeColor=#d6b656;" parent="1" vertex="1">
                    <mxGeometry x="360" y="600" width="196.5" height="60" as="geometry"/>
                </mxCell>
                <mxCell id="TLKmbodHc9-tWzEVnzp6-10" style="edgeStyle=orthogonalEdgeStyle;rounded=0;orthogonalLoop=1;jettySize=auto;html=1;exitX=0.5;exitY=0;exitDx=0;exitDy=0;entryX=0.5;entryY=1;entryDx=0;entryDy=0;" parent="1" source="TLKmbodHc9-tWzEVnzp6-11" target="TLKmbodHc9-tWzEVnzp6-7" edge="1">
                    <mxGeometry relative="1" as="geometry">
                        <mxPoint x="483.5" y="540" as="targetPoint"/>
                    </mxGeometry>
                </mxCell>
                <mxCell id="TLKmbodHc9-tWzEVnzp6-11" value="PX：权限模块，标准化的权限声明，例如：用户权限、行列权限声明" style="rounded=1;whiteSpace=wrap;html=1;fillColor=#fff2cc;strokeColor=#d6b656;" parent="1" vertex="1">
                    <mxGeometry x="774.5" y="600" width="140" height="60" as="geometry"/>
                </mxCell>
                <mxCell id="TLKmbodHc9-tWzEVnzp6-12" value="DataAccessStore：数据库访问仓库" style="rounded=1;whiteSpace=wrap;html=1;align=left;fillColor=#fff2cc;strokeColor=#d6b656;labelPosition=center;verticalLabelPosition=middle;verticalAlign=top;" parent="1" vertex="1">
                    <mxGeometry x="413.5" y="470" width="176.5" height="80" as="geometry"/>
                </mxCell>
                <mxCell id="TLKmbodHc9-tWzEVnzp6-13" value="InMemoryCodex：维度显示组件" style="rounded=1;whiteSpace=wrap;html=1;align=left;fillColor=#fff2cc;strokeColor=#d6b656;verticalAlign=top;" parent="1" vertex="1">
                    <mxGeometry x="779" y="470" width="80" height="80" as="geometry"/>
                </mxCell>
                <mxCell id="TLKmbodHc9-tWzEVnzp6-14" value="DataDesensitization：数据脱敏组件" style="rounded=1;whiteSpace=wrap;html=1;align=left;fillColor=#fff2cc;strokeColor=#d6b656;verticalAlign=top;" parent="1" vertex="1">
                    <mxGeometry x="869" y="470" width="80" height="80" as="geometry"/>
                </mxCell>
                <mxCell id="TLKmbodHc9-tWzEVnzp6-15" style="edgeStyle=orthogonalEdgeStyle;rounded=0;orthogonalLoop=1;jettySize=auto;html=1;exitX=0.5;exitY=0;exitDx=0;exitDy=0;entryX=0.5;entryY=1;entryDx=0;entryDy=0;" parent="1" source="TLKmbodHc9-tWzEVnzp6-16" target="TLKmbodHc9-tWzEVnzp6-18" edge="1">
                    <mxGeometry relative="1" as="geometry"/>
                </mxCell>
                <mxCell id="TLKmbodHc9-tWzEVnzp6-16" value="元数据簇：提供标准数据交换格式，实现数据配置或第三方数据系统与查询模型的接入能力" style="rounded=1;whiteSpace=wrap;html=1;align=center;fillColor=#f8cecc;strokeColor=#b85450;" parent="1" vertex="1">
                    <mxGeometry x="293.75" y="790" width="681.5" height="60" as="geometry"/>
                </mxCell>
                <mxCell id="TLKmbodHc9-tWzEVnzp6-17" style="edgeStyle=orthogonalEdgeStyle;rounded=0;orthogonalLoop=1;jettySize=auto;html=1;exitX=0.5;exitY=0;exitDx=0;exitDy=0;entryX=0.5;entryY=1;entryDx=0;entryDy=0;" parent="1" source="TLKmbodHc9-tWzEVnzp6-18" target="TLKmbodHc9-tWzEVnzp6-6" edge="1">
                    <mxGeometry relative="1" as="geometry"/>
                </mxCell>
                <mxCell id="TLKmbodHc9-tWzEVnzp6-18" value="查询模型：提供数据查询的能力，例如：度量、维度、过滤条件和排序等，自动实现表关联" style="rounded=1;whiteSpace=wrap;html=1;align=center;fillColor=#f8cecc;strokeColor=#b85450;" parent="1" vertex="1">
                    <mxGeometry x="293.75" y="700" width="681.5" height="60" as="geometry"/>
                </mxCell>
                <mxCell id="TLKmbodHc9-tWzEVnzp6-19" value="分析报告：提供编写和维护自动化报告的能力" style="rounded=1;whiteSpace=wrap;html=1;align=center;fillColor=#fff2cc;strokeColor=#d6b656;arcSize=6;verticalAlign=top;" parent="1" vertex="1">
                    <mxGeometry x="493.25" y="235" width="153.5" height="70" as="geometry"/>
                </mxCell>
                <mxCell id="TLKmbodHc9-tWzEVnzp6-20" value="" style="shape=flexArrow;endArrow=classic;html=1;" parent="1" edge="1">
                    <mxGeometry width="50" height="50" relative="1" as="geometry">
                        <mxPoint x="632.75" y="410" as="sourcePoint"/>
                        <mxPoint x="632.75" y="340" as="targetPoint"/>
                    </mxGeometry>
                </mxCell>
                <mxCell id="TLKmbodHc9-tWzEVnzp6-21" value="DataAccess：数据库访问对象" style="rounded=1;whiteSpace=wrap;html=1;align=left;fillColor=#e1d5e7;strokeColor=#9673a6;labelPosition=center;verticalLabelPosition=middle;verticalAlign=top;" parent="1" vertex="1">
                    <mxGeometry x="470" y="495" width="96.5" height="50" as="geometry"/>
                </mxCell>
                <mxCell id="TLKmbodHc9-tWzEVnzp6-22" value="QueryCache：缓存组件" style="rounded=1;whiteSpace=wrap;html=1;align=left;fillColor=#fff2cc;strokeColor=#d6b656;verticalAlign=top;" parent="1" vertex="1">
                    <mxGeometry x="689" y="470" width="80" height="80" as="geometry"/>
                </mxCell>
                <mxCell id="TLKmbodHc9-tWzEVnzp6-23" value="智能合规：模型工厂" style="rounded=1;whiteSpace=wrap;html=1;align=left;fillColor=#fff2cc;strokeColor=#d6b656;arcSize=6;verticalAlign=top;" parent="1" vertex="1">
                    <mxGeometry x="685" y="237.5" width="153.5" height="70" as="geometry"/>
                </mxCell>
                <mxCell id="TLKmbodHc9-tWzEVnzp6-26" value="DataAccess：数据库访问对象" style="rounded=1;whiteSpace=wrap;html=1;align=left;fillColor=#e1d5e7;strokeColor=#9673a6;labelPosition=center;verticalLabelPosition=middle;verticalAlign=top;" parent="1" vertex="1">
                    <mxGeometry x="478" y="495" width="96.5" height="50" as="geometry"/>
                </mxCell>
                <mxCell id="TLKmbodHc9-tWzEVnzp6-27" value="DataAccess：数据库访问对象" style="rounded=1;whiteSpace=wrap;html=1;align=left;fillColor=#e1d5e7;strokeColor=#9673a6;labelPosition=center;verticalLabelPosition=middle;verticalAlign=top;" parent="1" vertex="1">
                    <mxGeometry x="488" y="495" width="96.5" height="50" as="geometry"/>
                </mxCell>
                <mxCell id="TLKmbodHc9-tWzEVnzp6-28" value="ExecuteQuery：查询组件" style="rounded=1;whiteSpace=wrap;html=1;align=left;fillColor=#fff2cc;strokeColor=#d6b656;verticalAlign=top;" parent="1" vertex="1">
                    <mxGeometry x="599.5" y="470" width="80" height="80" as="geometry"/>
                </mxCell>
            </root>
        </mxGraphModel>
    </diagram>
    <diagram id="ceIGDBZwahbrxTjJkGJ6" name="时序图">
        <mxGraphModel dx="864" dy="563" grid="1" gridSize="10" guides="1" tooltips="1" connect="1" arrows="1" fold="1" page="1" pageScale="1" pageWidth="827" pageHeight="1169" math="0" shadow="0">
            <root>
                <mxCell id="0"/>
                <mxCell id="1" parent="0"/>
                <mxCell id="n4fgIsjpSneUejR9gxKD-1" value="" style="shape=umlLifeline;participant=umlActor;perimeter=lifelinePerimeter;whiteSpace=wrap;html=1;container=1;collapsible=0;recursiveResize=0;verticalAlign=top;spacingTop=36;outlineConnect=0;" parent="1" vertex="1">
                    <mxGeometry x="70" y="105" width="20" height="495" as="geometry"/>
                </mxCell>
                <mxCell id="n4fgIsjpSneUejR9gxKD-3" value="DSL 生成" style="shape=umlLifeline;perimeter=lifelinePerimeter;whiteSpace=wrap;html=1;container=1;collapsible=0;recursiveResize=0;outlineConnect=0;" parent="1" vertex="1">
                    <mxGeometry x="165" y="105" width="100" height="495" as="geometry"/>
                </mxCell>
                <mxCell id="n4fgIsjpSneUejR9gxKD-39" value="" style="html=1;points=[[0,0,0,0,5],[0,1,0,0,-5],[1,0,0,0,5],[1,1,0,0,-5]];perimeter=orthogonalPerimeter;outlineConnect=0;targetShapes=umlLifeline;portConstraint=eastwest;newEdgeStyle={&quot;curved&quot;:0,&quot;rounded&quot;:0};" parent="n4fgIsjpSneUejR9gxKD-3" vertex="1">
                    <mxGeometry x="45" y="95" width="10" height="185" as="geometry"/>
                </mxCell>
                <mxCell id="n4fgIsjpSneUejR9gxKD-45" value="查询模型&lt;br&gt;+元数据簇" style="html=1;verticalAlign=bottom;endArrow=block;curved=0;rounded=0;startArrow=oval;startFill=1;labelBackgroundColor=none;" parent="n4fgIsjpSneUejR9gxKD-3" edge="1">
                    <mxGeometry relative="1" as="geometry">
                        <mxPoint x="55" y="120" as="sourcePoint"/>
                        <mxPoint x="125" y="120" as="targetPoint"/>
                    </mxGeometry>
                </mxCell>
                <mxCell id="n4fgIsjpSneUejR9gxKD-63" value="" style="html=1;verticalAlign=bottom;endArrow=none;curved=0;rounded=0;startArrow=open;startFill=0;labelBackgroundColor=none;endFill=0;" parent="n4fgIsjpSneUejR9gxKD-3" edge="1">
                    <mxGeometry relative="1" as="geometry">
                        <mxPoint x="55" y="259" as="sourcePoint"/>
                        <mxPoint x="125" y="259" as="targetPoint"/>
                        <Array as="points">
                            <mxPoint x="85" y="259"/>
                        </Array>
                    </mxGeometry>
                </mxCell>
                <mxCell id="n4fgIsjpSneUejR9gxKD-5" value="查询" style="shape=umlLifeline;perimeter=lifelinePerimeter;whiteSpace=wrap;html=1;container=1;collapsible=0;recursiveResize=0;outlineConnect=0;" parent="1" vertex="1">
                    <mxGeometry x="370" y="105" width="102" height="495" as="geometry"/>
                </mxCell>
                <mxCell id="n4fgIsjpSneUejR9gxKD-69" value="" style="html=1;points=[[0,0,0,0,5],[0,1,0,0,-5],[1,0,0,0,5],[1,1,0,0,-5]];perimeter=orthogonalPerimeter;outlineConnect=0;targetShapes=umlLifeline;portConstraint=eastwest;newEdgeStyle={&quot;curved&quot;:0,&quot;rounded&quot;:0};" parent="n4fgIsjpSneUejR9gxKD-5" vertex="1">
                    <mxGeometry x="46" y="300" width="10" height="160" as="geometry"/>
                </mxCell>
                <mxCell id="n4fgIsjpSneUejR9gxKD-74" value="查询&lt;br&gt;缓存" style="html=1;verticalAlign=bottom;startArrow=oval;startFill=1;endArrow=block;startSize=8;curved=0;rounded=0;labelBackgroundColor=none;" parent="n4fgIsjpSneUejR9gxKD-5" target="n4fgIsjpSneUejR9gxKD-73" edge="1">
                    <mxGeometry width="60" relative="1" as="geometry">
                        <mxPoint x="56.00000000000003" y="325" as="sourcePoint"/>
                        <mxPoint x="124.66" y="325" as="targetPoint"/>
                    </mxGeometry>
                </mxCell>
                <mxCell id="n4fgIsjpSneUejR9gxKD-30" value="&lt;span style=&quot;font-style: normal; font-variant-ligatures: normal; font-variant-caps: normal; font-weight: 400; letter-spacing: normal; orphans: 2; text-align: left; text-indent: 0px; text-transform: none; widows: 2; word-spacing: 0px; -webkit-text-stroke-width: 0px; text-decoration-thickness: initial; text-decoration-style: initial; text-decoration-color: initial; float: none; display: inline !important;&quot;&gt;&lt;font style=&quot;font-size: 12px;&quot;&gt;缓存组件，会将查询耗时达到阈值的查询，进行缓存，提升下一次查询的速度。如果查询超时且存在缓存的时候，也会继续使用缓存，并加上超时和使用缓存的提示，只有当最新的查询结果返回时，才会移除缓存中旧的结果数据。&lt;font color=&quot;#ff0000&quot;&gt;（未实现）&lt;/font&gt;&lt;/font&gt;&lt;/span&gt;" style="text;whiteSpace=wrap;html=1;fillColor=default;labelBackgroundColor=none;" parent="1" vertex="1">
                    <mxGeometry x="440" y="270" width="190" height="80" as="geometry"/>
                </mxCell>
                <mxCell id="n4fgIsjpSneUejR9gxKD-40" value="发起根据查询模型构建&lt;br&gt;查询语句的请求" style="html=1;verticalAlign=bottom;endArrow=block;curved=0;rounded=0;entryX=0;entryY=0;entryDx=0;entryDy=5;startArrow=oval;startFill=1;labelBackgroundColor=none;" parent="1" source="n4fgIsjpSneUejR9gxKD-1" target="n4fgIsjpSneUejR9gxKD-39" edge="1">
                    <mxGeometry relative="1" as="geometry">
                        <mxPoint x="140" y="335" as="sourcePoint"/>
                    </mxGeometry>
                </mxCell>
                <mxCell id="n4fgIsjpSneUejR9gxKD-41" value="返回 SQL" style="html=1;verticalAlign=bottom;endArrow=open;dashed=1;endSize=8;curved=0;rounded=0;exitX=0;exitY=1;exitDx=0;exitDy=-5;labelBackgroundColor=none;" parent="1" source="n4fgIsjpSneUejR9gxKD-39" target="n4fgIsjpSneUejR9gxKD-1" edge="1">
                    <mxGeometry relative="1" as="geometry">
                        <mxPoint x="140" y="405" as="targetPoint"/>
                    </mxGeometry>
                </mxCell>
                <mxCell id="n4fgIsjpSneUejR9gxKD-44" value="" style="html=1;points=[[0,0,0,0,5],[0,1,0,0,-5],[1,0,0,0,5],[1,1,0,0,-5]];perimeter=orthogonalPerimeter;outlineConnect=0;targetShapes=umlLifeline;portConstraint=eastwest;newEdgeStyle={&quot;curved&quot;:0,&quot;rounded&quot;:0};" parent="1" vertex="1">
                    <mxGeometry x="290" y="220" width="10" height="150" as="geometry"/>
                </mxCell>
                <mxCell id="n4fgIsjpSneUejR9gxKD-43" value="解析/处理&lt;br&gt;子查询语句" style="html=1;align=left;spacingLeft=2;endArrow=block;rounded=0;edgeStyle=orthogonalEdgeStyle;curved=0;rounded=0;startArrow=open;startFill=0;" parent="1" target="n4fgIsjpSneUejR9gxKD-42" edge="1">
                    <mxGeometry relative="1" as="geometry">
                        <mxPoint x="300" y="239.99702702702712" as="sourcePoint"/>
                        <Array as="points">
                            <mxPoint x="330" y="240"/>
                            <mxPoint x="330" y="260"/>
                        </Array>
                    </mxGeometry>
                </mxCell>
                <mxCell id="n4fgIsjpSneUejR9gxKD-42" value="" style="html=1;points=[[0,0,0,0,5],[0,1,0,0,-5],[1,0,0,0,5],[1,1,0,0,-5]];perimeter=orthogonalPerimeter;outlineConnect=0;targetShapes=umlLifeline;portConstraint=eastwest;newEdgeStyle={&quot;curved&quot;:0,&quot;rounded&quot;:0};" parent="1" vertex="1">
                    <mxGeometry x="295" y="248.97000000000003" width="10" height="21.03" as="geometry"/>
                </mxCell>
                <mxCell id="n4fgIsjpSneUejR9gxKD-49" value="解析查询模型，处理排序，&lt;br&gt;处理表关联，处理数据权限，&lt;br&gt;解析 USQL 语法，生成目标&lt;br&gt;数据库特定版本的特定语法，&lt;br&gt;生成查询语句" style="text;html=1;align=left;verticalAlign=middle;resizable=0;points=[];autosize=1;strokeColor=none;fillColor=none;" parent="1" vertex="1">
                    <mxGeometry x="234" y="270" width="180" height="90" as="geometry"/>
                </mxCell>
                <mxCell id="n4fgIsjpSneUejR9gxKD-64" value="数据库" style="shape=umlLifeline;perimeter=lifelinePerimeter;whiteSpace=wrap;html=1;container=1;collapsible=0;recursiveResize=0;outlineConnect=0;" parent="1" vertex="1">
                    <mxGeometry x="680" y="105" width="102" height="495" as="geometry"/>
                </mxCell>
                <mxCell id="1QzXFoS6uOj_w_TKk8ao-4" value="" style="html=1;points=[[0,0,0,0,5],[0,1,0,0,-5],[1,0,0,0,5],[1,1,0,0,-5]];perimeter=orthogonalPerimeter;outlineConnect=0;targetShapes=umlLifeline;portConstraint=eastwest;newEdgeStyle={&quot;curved&quot;:0,&quot;rounded&quot;:0};" parent="n4fgIsjpSneUejR9gxKD-64" vertex="1">
                    <mxGeometry x="46" y="320" width="10" height="20" as="geometry"/>
                </mxCell>
                <mxCell id="n4fgIsjpSneUejR9gxKD-70" value="请求查询，发起根据&lt;span style=&quot;&quot;&gt;查询模型或 SQL 到数据源&lt;/span&gt;&lt;span style=&quot;&quot;&gt;数据查询的请求&lt;/span&gt;" style="html=1;verticalAlign=bottom;endArrow=block;curved=0;rounded=0;entryX=0;entryY=0;entryDx=0;entryDy=5;startArrow=oval;startFill=1;labelBackgroundColor=none;" parent="1" source="n4fgIsjpSneUejR9gxKD-1" target="n4fgIsjpSneUejR9gxKD-69" edge="1">
                    <mxGeometry relative="1" as="geometry">
                        <mxPoint x="346" y="415" as="sourcePoint"/>
                    </mxGeometry>
                </mxCell>
                <mxCell id="n4fgIsjpSneUejR9gxKD-71" value="返回结果数据" style="html=1;verticalAlign=bottom;endArrow=open;dashed=1;endSize=8;curved=0;rounded=0;" parent="1" edge="1">
                    <mxGeometry relative="1" as="geometry">
                        <mxPoint x="79.85483870967755" y="556" as="targetPoint"/>
                        <mxPoint x="416" y="556" as="sourcePoint"/>
                    </mxGeometry>
                </mxCell>
                <mxCell id="n4fgIsjpSneUejR9gxKD-73" value="" style="html=1;points=[[0,0,0,0,5],[0,1,0,0,-5],[1,0,0,0,5],[1,1,0,0,-5]];perimeter=orthogonalPerimeter;outlineConnect=0;targetShapes=umlLifeline;portConstraint=eastwest;newEdgeStyle={&quot;curved&quot;:0,&quot;rounded&quot;:0};" parent="1" vertex="1">
                    <mxGeometry x="472" y="415" width="10" height="135" as="geometry"/>
                </mxCell>
                <mxCell id="n4fgIsjpSneUejR9gxKD-76" value="查询管理在接收到第一次请求时，会读取服务端配置、&lt;br&gt;&lt;div style=&quot;&quot;&gt;&lt;span style=&quot;background-color: initial;&quot;&gt;根据数据源初始化连接池&lt;/span&gt;&lt;/div&gt;" style="text;html=1;align=left;verticalAlign=middle;resizable=0;points=[];autosize=1;strokeColor=none;fillColor=none;" parent="1" vertex="1">
                    <mxGeometry x="420" y="190" width="310" height="40" as="geometry"/>
                </mxCell>
                <mxCell id="n4fgIsjpSneUejR9gxKD-78" value="执行查询" style="html=1;verticalAlign=bottom;endArrow=block;curved=0;rounded=0;entryX=0;entryY=0;entryDx=0;entryDy=5;startArrow=oval;startFill=1;entryPerimeter=0;" parent="1" source="n4fgIsjpSneUejR9gxKD-73" target="1QzXFoS6uOj_w_TKk8ao-4" edge="1">
                    <mxGeometry relative="1" as="geometry">
                        <mxPoint x="656" y="515" as="sourcePoint"/>
                        <mxPoint x="530" y="430" as="targetPoint"/>
                    </mxGeometry>
                </mxCell>
                <mxCell id="1QzXFoS6uOj_w_TKk8ao-6" value="" style="html=1;verticalAlign=bottom;endArrow=open;dashed=1;endSize=8;curved=0;rounded=0;exitX=0;exitY=1;exitDx=0;exitDy=-5;" parent="1" source="1QzXFoS6uOj_w_TKk8ao-4" target="n4fgIsjpSneUejR9gxKD-73" edge="1">
                    <mxGeometry relative="1" as="geometry">
                        <mxPoint x="540" y="440" as="targetPoint"/>
                    </mxGeometry>
                </mxCell>
                <mxCell id="n4fgIsjpSneUejR9gxKD-75" value="" style="html=1;verticalAlign=bottom;endArrow=open;endSize=8;curved=0;rounded=0;labelBackgroundColor=none;dashed=1;" parent="1" source="n4fgIsjpSneUejR9gxKD-73" target="n4fgIsjpSneUejR9gxKD-69" edge="1">
                    <mxGeometry relative="1" as="geometry">
                        <mxPoint x="480" y="480" as="sourcePoint"/>
                        <mxPoint x="426" y="480" as="targetPoint"/>
                        <Array as="points">
                            <mxPoint x="450" y="540"/>
                        </Array>
                    </mxGeometry>
                </mxCell>
                <mxCell id="1QzXFoS6uOj_w_TKk8ao-9" value="" style="html=1;points=[[0,0,0,0,5],[0,1,0,0,-5],[1,0,0,0,5],[1,1,0,0,-5]];perimeter=orthogonalPerimeter;outlineConnect=0;targetShapes=umlLifeline;portConstraint=eastwest;newEdgeStyle={&quot;curved&quot;:0,&quot;rounded&quot;:0};" parent="1" vertex="1">
                    <mxGeometry x="477" y="480" width="10" height="40" as="geometry"/>
                </mxCell>
                <mxCell id="1QzXFoS6uOj_w_TKk8ao-10" value="处理维度显示、&lt;br&gt;处理数据脱敏&lt;span style=&quot;border-color: var(--border-color); background-color: rgb(251, 251, 251); text-align: center;&quot;&gt;&lt;font style=&quot;border-color: var(--border-color);&quot; color=&quot;#ff0000&quot;&gt;（未实现）&lt;/font&gt;&lt;/span&gt;" style="html=1;align=left;spacingLeft=2;endArrow=block;rounded=0;edgeStyle=orthogonalEdgeStyle;curved=0;rounded=0;" parent="1" target="1QzXFoS6uOj_w_TKk8ao-9" edge="1">
                    <mxGeometry relative="1" as="geometry">
                        <mxPoint x="482" y="460" as="sourcePoint"/>
                        <Array as="points">
                            <mxPoint x="512" y="490"/>
                        </Array>
                    </mxGeometry>
                </mxCell>
            </root>
        </mxGraphModel>
    </diagram>
</mxfile>